#define a1_width 8
#define a1_height 9
static unsigned char a1_bits[] = {
   0x10, 0x18, 0xfc, 0x86, 0x83, 0x86, 0xfc, 0x18, 0x10};
