#define a2_width 13
#define a2_height 9
static unsigned char a2_bits[] = {
   0x10, 0x01, 0x18, 0x03, 0xbc, 0x07, 0xa6, 0x0c, 0xa3, 0x18, 0xa6, 0x0c,
   0xbc, 0x07, 0x18, 0x03, 0x10, 0x01};
