#define arcm_width 16
#define arcm_height 16
static char arcm_bits[] = {
 0xc0,0x07,0xc0,0x07,0xf0,0x1f,0xe0,0x0f,0xe0,0x7f,0xf0,0x7f,0xf8,0x7f,0xfc,
 0x7f,0xfc,0x7f,0xfc,0x7f,0xfc,0x7f,0xfc,0x7f,0xfc,0x7f,0xfc,0x3f,0xfc,0x1f,
 0xfc,0x0f};
