#define bv1_width 300
#define bv1_height 166
static char bv1_bits[] = {
  0x00, 0x00, 0x00, 0x00, 0x00, 0x00, 0x00, 0x00, 0x00, 0x00, 0x00, 0x00, 
  0x00, 0x00, 0x00, 0x00, 0x00, 0x00, 0x00, 0x00, 0x00, 0x00, 0x00, 0x00, 
  0x00, 0x00, 0x00, 0x00, 0x00, 0x00, 0x00, 0x00, 0x00, 0x00, 0x00, 0x00, 
  0x00, 0x00, 0x00, 0x00, 0x00, 0x00, 0x00, 0x00, 0x00, 0x00, 0x00, 0x00, 
  0x00, 0x00, 0x00, 0x00, 0x00, 0x00, 0x00, 0x00, 0x00, 0x00, 0x00, 0x00, 
  0x00, 0x00, 0x00, 0x00, 0x00, 0x00, 0x00, 0x00, 0x00, 0x00, 0x00, 0x00, 
  0x00, 0x00, 0x00, 0x00, 0x00, 0x00, 0x00, 0x00, 0x00, 0x00, 0x00, 0x00, 
  0x00, 0x00, 0x00, 0x00, 0x00, 0x00, 0x00, 0x00, 0x00, 0x00, 0x00, 0x00, 
  0x00, 0x00, 0x00, 0x00, 0x00, 0x00, 0x00, 0x00, 0x00, 0x00, 0x00, 0x00, 
  0x00, 0x00, 0x00, 0x00, 0x00, 0x00, 0x00, 0x00, 0x00, 0x00, 0x00, 0x00, 
  0x00, 0x00, 0x00, 0x00, 0x00, 0x00, 0x00, 0x00, 0x00, 0x00, 0x00, 0x00, 
  0x00, 0x00, 0x00, 0x00, 0x00, 0x00, 0x00, 0x00, 0x00, 0x00, 0x00, 0x00, 
  0x00, 0x00, 0x00, 0x00, 0x00, 0x00, 0x00, 0x00, 0x00, 0x00, 0x00, 0x00, 
  0x00, 0x00, 0x00, 0x00, 0x00, 0x00, 0x00, 0x00, 0x00, 0x00, 0x00, 0x00, 
  0x00, 0x00, 0x00, 0x00, 0x00, 0x00, 0x00, 0x00, 0x00, 0x00, 0x00, 0x00, 
  0x00, 0x00, 0x00, 0x00, 0x00, 0x00, 0x00, 0x00, 0x00, 0x00, 0x00, 0x00, 
  0x00, 0x00, 0x00, 0x00, 0x00, 0x00, 0x00, 0x00, 0x00, 0x00, 0x00, 0x00, 
  0x00, 0x00, 0x00, 0x00, 0x00, 0x00, 0x00, 0x00, 0x00, 0x00, 0x00, 0x00, 
  0x00, 0x00, 0x00, 0x00, 0x00, 0x00, 0x00, 0x00, 0x00, 0x00, 0x00, 0x00, 
  0x00, 0x00, 0x00, 0x00, 0x00, 0x00, 0x00, 0x00, 0x00, 0x00, 0x00, 0x00, 
  0x00, 0x00, 0x00, 0x00, 0x00, 0x00, 0x00, 0x00, 0x00, 0x00, 0x00, 0x00, 
  0x00, 0x00, 0x00, 0x00, 0x00, 0x00, 0x00, 0x00, 0x00, 0x00, 0x00, 0x00, 
  0x00, 0x00, 0x00, 0x00, 0x00, 0x00, 0x00, 0x00, 0x00, 0x00, 0x00, 0x00, 
  0x00, 0x00, 0x00, 0x00, 0x00, 0x00, 0x00, 0x00, 0x00, 0x00, 0x00, 0x00, 
  0x00, 0x00, 0x00, 0x00, 0x00, 0x00, 0x00, 0x00, 0x00, 0x00, 0x00, 0x00, 
  0x00, 0x00, 0x00, 0x00, 0x00, 0x00, 0x00, 0x00, 0x00, 0x00, 0x00, 0x00, 
  0x00, 0x00, 0x00, 0x00, 0x00, 0x00, 0x00, 0x00, 0x00, 0x00, 0x00, 0x00, 
  0x00, 0x00, 0x00, 0x00, 0x00, 0x00, 0x00, 0x00, 0x00, 0x00, 0x00, 0x00, 
  0x00, 0x00, 0x00, 0x00, 0x00, 0x00, 0x00, 0x00, 0x00, 0x00, 0x00, 0x00, 
  0x00, 0x00, 0x00, 0x00, 0x00, 0x00, 0x00, 0x00, 0x00, 0x00, 0x00, 0x00, 
  0x00, 0x00, 0x00, 0x00, 0x00, 0x00, 0x00, 0x00, 0x00, 0x00, 0x00, 0x00, 
  0x00, 0x00, 0x00, 0x00, 0x00, 0x00, 0x00, 0x00, 0x00, 0x00, 0x00, 0x00, 
  0x00, 0x00, 0x00, 0x00, 0x00, 0x00, 0x00, 0x00, 0x00, 0x00, 0x00, 0x00, 
  0x00, 0x00, 0x00, 0x00, 0x00, 0x00, 0x00, 0x00, 0x00, 0x00, 0x80, 0x00, 
  0x00, 0x00, 0x00, 0x00, 0x00, 0x00, 0x00, 0x00, 0x00, 0x00, 0x00, 0x00, 
  0x00, 0x00, 0x00, 0x00, 0x00, 0x00, 0x00, 0x00, 0x00, 0x00, 0x00, 0x00, 
  0x00, 0x00, 0x00, 0x00, 0x00, 0x00, 0x00, 0x00, 0x00, 0x00, 0x00, 0x00, 
  0x80, 0x00, 0x00, 0x00, 0x00, 0x00, 0x00, 0x00, 0x00, 0x00, 0x00, 0x00, 
  0x00, 0x00, 0x00, 0x00, 0x00, 0x00, 0x00, 0x00, 0x00, 0x00, 0x00, 0x00, 
  0x00, 0x00, 0x00, 0x00, 0x00, 0x00, 0x00, 0x00, 0x00, 0x00, 0x00, 0x00, 
  0x00, 0x00, 0x80, 0x00, 0x00, 0x00, 0x00, 0x00, 0x00, 0x00, 0x00, 0x00, 
  0x00, 0x00, 0x00, 0x00, 0x00, 0x00, 0x00, 0x00, 0x00, 0x00, 0x00, 0x00, 
  0x00, 0x00, 0x00, 0x00, 0x00, 0x00, 0x00, 0x00, 0x00, 0x00, 0x00, 0x00, 
  0x00, 0x00, 0x00, 0x00, 0x80, 0x00, 0x00, 0x00, 0x00, 0x00, 0x00, 0x00, 
  0x00, 0x00, 0x00, 0x00, 0x00, 0x00, 0x00, 0x00, 0x00, 0x00, 0x00, 0x00, 
  0x00, 0x00, 0x00, 0x00, 0x00, 0x00, 0x00, 0x00, 0x00, 0x00, 0x00, 0x00, 
  0x00, 0x00, 0x00, 0x00, 0x00, 0x00, 0x80, 0x00, 0x00, 0x00, 0x00, 0x00, 
  0x00, 0x00, 0x00, 0x00, 0x00, 0x00, 0x00, 0x00, 0x00, 0x00, 0x00, 0x00, 
  0x00, 0x00, 0x00, 0x00, 0x00, 0x00, 0x00, 0x00, 0x00, 0x00, 0x00, 0x00, 
  0x00, 0x00, 0x00, 0x00, 0x00, 0x00, 0x00, 0x00, 0x80, 0x1c, 0x00, 0x00, 
  0x00, 0x00, 0x00, 0x00, 0x00, 0x00, 0x00, 0x00, 0x00, 0x00, 0x00, 0x00, 
  0x00, 0x00, 0x00, 0x00, 0x00, 0x00, 0x00, 0x00, 0x00, 0x00, 0x00, 0x00, 
  0x00, 0x00, 0x00, 0x00, 0x00, 0x00, 0x00, 0x00, 0x00, 0x00, 0x80, 0x18, 
  0x00, 0x00, 0x00, 0x00, 0x00, 0x00, 0x00, 0x00, 0x00, 0x00, 0x00, 0x00, 
  0x00, 0x00, 0x00, 0x00, 0x00, 0x00, 0x00, 0x00, 0x00, 0x00, 0x00, 0x00, 
  0x00, 0x00, 0x00, 0x00, 0x00, 0x00, 0x00, 0x00, 0x00, 0x00, 0x00, 0x00, 
  0x80, 0x1e, 0x00, 0x00, 0x00, 0x00, 0x00, 0x00, 0x00, 0x00, 0x00, 0x00, 
  0x00, 0x00, 0x00, 0x00, 0x00, 0x00, 0x00, 0x00, 0x00, 0x00, 0x00, 0x00, 
  0x00, 0x00, 0x00, 0x00, 0x00, 0x00, 0x00, 0x00, 0x00, 0x00, 0x00, 0x00, 
  0x00, 0x00, 0x80, 0x3c, 0x00, 0x00, 0x00, 0x00, 0x00, 0x00, 0x00, 0x00, 
  0x00, 0x00, 0x00, 0x00, 0x00, 0x00, 0x00, 0x00, 0x00, 0x00, 0x00, 0x00, 
  0x00, 0x00, 0x00, 0x00, 0x00, 0x00, 0x00, 0x00, 0x00, 0x00, 0x00, 0x00, 
  0x00, 0x00, 0x00, 0x00, 0x80, 0x78, 0x00, 0x00, 0x00, 0x00, 0x00, 0x00, 
  0x00, 0x00, 0x00, 0x00, 0x00, 0x00, 0x00, 0x00, 0x00, 0x00, 0x00, 0x00, 
  0x00, 0x00, 0x00, 0x00, 0x00, 0x00, 0x00, 0x00, 0x00, 0x00, 0x00, 0x00, 
  0x00, 0x00, 0x00, 0x00, 0x00, 0x00, 0x80, 0x38, 0x00, 0x00, 0x00, 0x00, 
  0x00, 0x00, 0x00, 0x00, 0x00, 0x00, 0x00, 0x00, 0x00, 0x00, 0x00, 0x00, 
  0x00, 0x00, 0x00, 0x00, 0x00, 0x00, 0x00, 0x00, 0x00, 0x00, 0x00, 0x00, 
  0x00, 0x00, 0x00, 0x00, 0x00, 0x00, 0x00, 0x00, 0x80, 0x6c, 0x00, 0x00, 
  0x00, 0x00, 0x00, 0x00, 0x00, 0x00, 0x00, 0x00, 0x00, 0x00, 0x00, 0x00, 
  0x00, 0x00, 0x00, 0x00, 0x00, 0x00, 0x00, 0x00, 0x00, 0x00, 0x00, 0x00, 
  0x00, 0x00, 0x00, 0x00, 0x00, 0x00, 0x00, 0x00, 0x00, 0x00, 0x80, 0x7c, 
  0x00, 0x00, 0x00, 0x00, 0x00, 0x00, 0x00, 0x00, 0x00, 0x00, 0x00, 0x00, 
  0x00, 0x00, 0x00, 0x00, 0x00, 0x00, 0x00, 0x00, 0x00, 0x00, 0x00, 0x00, 
  0x00, 0x00, 0x00, 0x00, 0x00, 0x00, 0x00, 0x00, 0x00, 0x00, 0x00, 0x00, 
  0x80, 0x7c, 0x00, 0x00, 0x00, 0x00, 0x00, 0x00, 0x00, 0x00, 0x00, 0x00, 
  0x00, 0x00, 0x00, 0x00, 0x00, 0x00, 0x00, 0x00, 0x00, 0x00, 0x00, 0x00, 
  0x00, 0x00, 0x00, 0x00, 0x00, 0x00, 0x00, 0x00, 0x00, 0x00, 0x00, 0x00, 
  0x00, 0x00, 0x80, 0x7e, 0x00, 0x00, 0x00, 0x00, 0x00, 0x00, 0x00, 0x00, 
  0x00, 0x00, 0x00, 0x00, 0x00, 0x00, 0x00, 0x00, 0x00, 0x00, 0x00, 0x00, 
  0x00, 0x00, 0x00, 0x00, 0x00, 0x00, 0x00, 0x00, 0x00, 0x00, 0x00, 0x00, 
  0x00, 0x00, 0x00, 0x00, 0x00, 0xfe, 0x00, 0x00, 0x00, 0x00, 0x00, 0x00, 
  0x00, 0x00, 0x00, 0x00, 0x00, 0x00, 0x00, 0x00, 0x00, 0x00, 0x00, 0x00, 
  0x00, 0x00, 0x00, 0x00, 0x00, 0x00, 0x00, 0x00, 0x00, 0x00, 0x00, 0x00, 
  0x00, 0x00, 0x00, 0x00, 0x00, 0x00, 0x00, 0x3e, 0x00, 0x00, 0x00, 0x00, 
  0x00, 0x00, 0x00, 0x00, 0x00, 0x00, 0x00, 0x00, 0x00, 0x00, 0x00, 0x00, 
  0x00, 0x00, 0x00, 0x00, 0x00, 0x00, 0x00, 0x00, 0x00, 0x00, 0x00, 0x00, 
  0x00, 0x00, 0x00, 0x00, 0x00, 0x00, 0x00, 0x00, 0x80, 0x18, 0x00, 0x00, 
  0x00, 0x00, 0x00, 0x00, 0x00, 0x00, 0x00, 0x00, 0x00, 0x00, 0x00, 0x00, 
  0x00, 0x00, 0x00, 0x00, 0x00, 0x00, 0x00, 0x00, 0x00, 0x00, 0x00, 0x00, 
  0x00, 0x00, 0x00, 0x00, 0x00, 0x00, 0x00, 0x00, 0x00, 0x00, 0x00, 0x10, 
  0x00, 0x00, 0x00, 0x00, 0x00, 0x00, 0x00, 0x00, 0x00, 0x00, 0x00, 0x00, 
  0x00, 0x00, 0x00, 0x00, 0x00, 0x00, 0x00, 0x00, 0x00, 0x00, 0x00, 0x00, 
  0x00, 0x00, 0x00, 0x00, 0x00, 0x00, 0x00, 0x00, 0x00, 0x00, 0x00, 0x00, 
  0x80, 0x14, 0x00, 0x00, 0x00, 0x00, 0x00, 0x00, 0x00, 0x00, 0x00, 0x00, 
  0x00, 0x00, 0x00, 0x00, 0x00, 0x00, 0x00, 0x00, 0x00, 0x00, 0x00, 0x00, 
  0x00, 0x00, 0x00, 0x00, 0x00, 0x00, 0x00, 0x00, 0x00, 0x00, 0x00, 0x00, 
  0x00, 0x00, 0x00, 0x18, 0x00, 0x00, 0x00, 0x00, 0x00, 0x00, 0x00, 0x00, 
  0x00, 0x00, 0x00, 0x00, 0x00, 0x00, 0x00, 0x00, 0x00, 0x00, 0x00, 0x00, 
  0x00, 0x00, 0x00, 0x00, 0x00, 0x00, 0x00, 0x00, 0x00, 0x00, 0x00, 0x00, 
  0x00, 0x00, 0x00, 0x00, 0x00, 0x04, 0x00, 0x00, 0x00, 0x00, 0x00, 0x00, 
  0x00, 0x00, 0x00, 0x00, 0x00, 0x00, 0x00, 0x00, 0x00, 0x00, 0x00, 0x00, 
  0x00, 0x00, 0x00, 0x00, 0x00, 0x00, 0x00, 0x00, 0x00, 0x00, 0x00, 0x00, 
  0x00, 0x00, 0x00, 0x00, 0x00, 0x00, 0x00, 0x08, 0x00, 0x00, 0x00, 0x00, 
  0x00, 0x00, 0x00, 0x00, 0x00, 0x00, 0x00, 0x00, 0x00, 0x00, 0x00, 0x00, 
  0x00, 0x00, 0x00, 0x00, 0x00, 0x00, 0x00, 0x00, 0x00, 0x00, 0x00, 0x00, 
  0x00, 0x00, 0x00, 0x00, 0x00, 0x00, 0x00, 0x00, 0x00, 0x14, 0x00, 0x00, 
  0x00, 0x00, 0x00, 0x00, 0x00, 0x00, 0x00, 0x00, 0x00, 0x00, 0x00, 0x80, 
  0x00, 0x20, 0x78, 0x18, 0x05, 0x00, 0x00, 0x00, 0x00, 0x00, 0x00, 0x00, 
  0x00, 0x00, 0x00, 0x00, 0x00, 0x00, 0x00, 0x00, 0x00, 0x00, 0x80, 0x08, 
  0x00, 0x00, 0x00, 0x00, 0x00, 0x00, 0x00, 0x00, 0x00, 0x00, 0x00, 0x00, 
  0x00, 0x80, 0x01, 0xe4, 0x5b, 0xc7, 0x02, 0x00, 0x00, 0x00, 0x00, 0x00, 
  0x00, 0x00, 0x00, 0x00, 0x00, 0x00, 0x00, 0x00, 0x00, 0x00, 0x00, 0x00, 
  0x00, 0x14, 0x00, 0x00, 0x00, 0x00, 0x00, 0x00, 0x00, 0x00, 0x00, 0x00, 
  0x00, 0x00, 0x00, 0xc0, 0x4b, 0x6d, 0xef, 0xdf, 0x13, 0x52, 0x00, 0x00, 
  0x00, 0x00, 0x00, 0x00, 0x00, 0x00, 0x00, 0x00, 0x00, 0x00, 0x00, 0x00, 
  0x00, 0x00, 0x00, 0x10, 0x00, 0x00, 0x00, 0x00, 0x00, 0x00, 0x00, 0x00, 
  0x00, 0x00, 0x00, 0x00, 0x00, 0x80, 0xa0, 0xd6, 0xbb, 0x72, 0xfd, 0x26, 
  0x00, 0x00, 0x00, 0x00, 0x00, 0x00, 0x00, 0x00, 0x00, 0x00, 0x00, 0x00, 
  0x00, 0x00, 0x00, 0x00, 0x80, 0x08, 0x04, 0x00, 0x00, 0x00, 0x00, 0x00, 
  0x00, 0x00, 0x00, 0x00, 0x00, 0x00, 0x00, 0xa0, 0xe7, 0xf6, 0xdf, 0xdf, 
  0x9f, 0xbd, 0x01, 0x00, 0x00, 0x00, 0x00, 0x00, 0x00, 0x00, 0x00, 0x00, 
  0x00, 0x00, 0x00, 0x00, 0x00, 0x00, 0x80, 0x10, 0x04, 0x00, 0x00, 0x00, 
  0x00, 0x00, 0x00, 0x00, 0x00, 0x00, 0x00, 0x00, 0x80, 0x68, 0xde, 0xff, 
  0xfe, 0xff, 0xfd, 0x67, 0x07, 0x00, 0x00, 0x00, 0x00, 0x00, 0x00, 0x00, 
  0x00, 0x00, 0x00, 0x00, 0x00, 0x00, 0x00, 0x00, 0x00, 0x08, 0x04, 0x00, 
  0x00, 0x00, 0x00, 0x00, 0x00, 0x00, 0x00, 0x00, 0x00, 0x00, 0x40, 0xf6, 
  0xff, 0xff, 0xff, 0xf7, 0xbe, 0xb6, 0x2c, 0x00, 0x00, 0x00, 0x00, 0x00, 
  0x00, 0x00, 0x00, 0x00, 0x00, 0x00, 0x00, 0x00, 0x00, 0x00, 0x00, 0x10, 
  0x00, 0x00, 0x00, 0x00, 0x00, 0x00, 0x00, 0x00, 0x00, 0x00, 0x00, 0x00, 
  0xf8, 0xff, 0xff, 0xff, 0xff, 0xff, 0xef, 0xef, 0x57, 0x00, 0x00, 0x00, 
  0x00, 0x00, 0x00, 0x00, 0x00, 0x00, 0x00, 0x00, 0x00, 0x00, 0x00, 0x00, 
  0x80, 0x10, 0x00, 0x00, 0x00, 0x00, 0x00, 0x00, 0x00, 0x00, 0x00, 0x00, 
  0x08, 0x80, 0xf5, 0xff, 0xfe, 0xfe, 0xff, 0xff, 0xff, 0xff, 0x7f, 0x00, 
  0x00, 0x00, 0x00, 0x00, 0x00, 0x00, 0x00, 0x00, 0x00, 0x00, 0x00, 0x00, 
  0x00, 0x00, 0x80, 0x18, 0x00, 0x00, 0x00, 0x00, 0x00, 0x00, 0x00, 0x00, 
  0x00, 0x00, 0x00, 0xfa, 0xdf, 0xbf, 0xff, 0xff, 0xff, 0xff, 0xff, 0xb7, 
  0xeb, 0x01, 0x00, 0x00, 0x00, 0x00, 0x00, 0x00, 0x00, 0x00, 0x00, 0x00, 
  0x00, 0x00, 0x00, 0x00, 0x00, 0x00, 0x86, 0x01, 0x00, 0x00, 0x00, 0x00, 
  0x00, 0x00, 0x00, 0x00, 0x40, 0xff, 0xfe, 0xff, 0xff, 0xff, 0xff, 0xff, 
  0xff, 0xdb, 0x5f, 0x02, 0x00, 0x00, 0x00, 0x00, 0x00, 0x00, 0x00, 0x00, 
  0x00, 0x00, 0x00, 0x00, 0x00, 0x00, 0x00, 0x18, 0x87, 0x03, 0x00, 0x00, 
  0x00, 0x00, 0x00, 0x00, 0x00, 0x00, 0xd0, 0xf5, 0xff, 0xff, 0xff, 0xff, 
  0xff, 0xff, 0xff, 0xff, 0xfe, 0x01, 0x00, 0x00, 0x00, 0x00, 0x00, 0x00, 
  0x00, 0x00, 0x00, 0x00, 0x00, 0x00, 0x00, 0x00, 0x80, 0x39, 0xdf, 0x03, 
  0x00, 0x00, 0x00, 0x00, 0x00, 0x00, 0x00, 0x00, 0xea, 0xff, 0xff, 0xff, 
  0xff, 0xff, 0xff, 0xff, 0xbf, 0xff, 0x3f, 0x03, 0x00, 0x00, 0x00, 0x00, 
  0x00, 0x00, 0x00, 0x00, 0x00, 0x00, 0x00, 0x00, 0x00, 0x00, 0xe0, 0x98, 
  0xff, 0x03, 0x00, 0x00, 0x00, 0x00, 0x00, 0x00, 0x00, 0x00, 0xff, 0xff, 
  0xff, 0xff, 0xff, 0xff, 0xff, 0xff, 0xff, 0xff, 0xf7, 0x06, 0x00, 0x00, 
  0x00, 0x00, 0x00, 0x00, 0x00, 0x00, 0x00, 0x00, 0x00, 0x00, 0x00, 0x00, 
  0xc0, 0xef, 0xff, 0x03, 0x00, 0x00, 0x00, 0x00, 0x00, 0x00, 0x00, 0x00, 
  0xff, 0xff, 0xff, 0xff, 0xff, 0xff, 0xff, 0xff, 0xff, 0xff, 0xfd, 0x06, 
  0x00, 0x00, 0x00, 0x00, 0x00, 0x00, 0x00, 0x00, 0x00, 0x00, 0x00, 0x00, 
  0x00, 0x00, 0xe0, 0xef, 0xf7, 0x03, 0x00, 0x00, 0x00, 0x00, 0x00, 0x00, 
  0x00, 0x00, 0xff, 0xff, 0xff, 0xff, 0xff, 0xff, 0xff, 0xff, 0xff, 0xff, 
  0xff, 0x07, 0x00, 0x00, 0x00, 0x00, 0x00, 0x00, 0x00, 0x00, 0x00, 0x00, 
  0x00, 0x00, 0x00, 0x00, 0xf8, 0xff, 0xdd, 0x07, 0x00, 0x00, 0x00, 0x00, 
  0x00, 0x00, 0x00, 0x00, 0xff, 0xff, 0xff, 0xff, 0xff, 0xff, 0xff, 0xff, 
  0xff, 0xff, 0xff, 0x47, 0x00, 0x00, 0x00, 0x00, 0x00, 0x00, 0x00, 0x00, 
  0x00, 0x00, 0x00, 0x00, 0x00, 0x00, 0xfe, 0xff, 0xbd, 0x07, 0x00, 0x00, 
  0x00, 0x00, 0x00, 0x00, 0x00, 0x00, 0xfe, 0xff, 0xff, 0xff, 0xff, 0xff, 
  0xff, 0xff, 0xff, 0xff, 0xff, 0x0f, 0x00, 0x40, 0x08, 0x00, 0x00, 0x00, 
  0x00, 0x00, 0x00, 0x00, 0x00, 0x00, 0x00, 0x00, 0xff, 0xff, 0xef, 0x06, 
  0x00, 0x00, 0x00, 0x00, 0x00, 0x00, 0x00, 0x00, 0xff, 0xff, 0xff, 0xff, 
  0xff, 0xff, 0xff, 0xff, 0xff, 0xff, 0xff, 0x4f, 0x10, 0x09, 0x01, 0x00, 
  0x00, 0x00, 0x00, 0x00, 0x00, 0x00, 0x00, 0x00, 0x00, 0x00, 0xff, 0xff, 
  0xff, 0x0f, 0x00, 0x00, 0x00, 0x00, 0x00, 0x00, 0x00, 0x00, 0xfc, 0xff, 
  0xff, 0xff, 0xff, 0xff, 0xff, 0xff, 0xff, 0xff, 0xff, 0x1f, 0x88, 0x90, 
  0x00, 0x00, 0x00, 0x00, 0x00, 0x00, 0x00, 0x00, 0x00, 0x80, 0x00, 0x80, 
  0xff, 0xff, 0xef, 0x0b, 0x00, 0x00, 0x00, 0x00, 0x00, 0x00, 0x00, 0x00, 
  0xf0, 0xff, 0xff, 0xff, 0xff, 0xff, 0xff, 0xff, 0xff, 0xff, 0xff, 0x4f, 
  0x55, 0xa0, 0x10, 0x00, 0x00, 0x00, 0x00, 0x00, 0x00, 0x00, 0x00, 0x00, 
  0x00, 0x80, 0xff, 0xff, 0xf7, 0x0f, 0x00, 0x00, 0x00, 0x00, 0x00, 0x00, 
  0x00, 0x00, 0xc0, 0xff, 0xff, 0xff, 0xff, 0xff, 0xff, 0xff, 0xff, 0xff, 
  0xff, 0x17, 0x00, 0x06, 0x09, 0x00, 0x00, 0x00, 0x00, 0x00, 0x00, 0x00, 
  0x00, 0x00, 0x00, 0xc0, 0xff, 0xff, 0xbf, 0x1f, 0x00, 0x00, 0x00, 0x00, 
  0x00, 0x00, 0x00, 0x00, 0x00, 0xff, 0xff, 0xff, 0xff, 0xff, 0xff, 0xff, 
  0xff, 0xff, 0xff, 0x1f, 0x10, 0x50, 0x48, 0x96, 0x80, 0x00, 0x28, 0x01, 
  0x00, 0x00, 0x00, 0x00, 0x00, 0xc0, 0xff, 0xff, 0xbf, 0x1f, 0x00, 0x00, 
  0x00, 0x00, 0x00, 0x00, 0x00, 0x00, 0x00, 0xf8, 0xff, 0xff, 0xff, 0xff, 
  0xff, 0xff, 0xff, 0xff, 0xff, 0x4f, 0x45, 0x4a, 0x01, 0x00, 0x00, 0x00, 
  0xa0, 0x02, 0x00, 0x00, 0x00, 0x40, 0x13, 0xe0, 0xff, 0xff, 0xbf, 0x37, 
  0x00, 0x28, 0x00, 0x00, 0x00, 0x00, 0x00, 0x00, 0x08, 0xe0, 0xff, 0xff, 
  0xff, 0xff, 0xff, 0xff, 0xff, 0xff, 0xff, 0x1f, 0x08, 0x02, 0x04, 0x46, 
  0x00, 0x90, 0x00, 0x04, 0x00, 0x00, 0xa0, 0xaa, 0x0a, 0xf0, 0xff, 0xff, 
  0x7f, 0x2f, 0x00, 0x40, 0x02, 0x00, 0x00, 0x00, 0x00, 0x00, 0x0a, 0xc0, 
  0xff, 0xff, 0xff, 0xff, 0xff, 0xff, 0xff, 0xff, 0xff, 0x47, 0x51, 0xa0, 
  0x91, 0x10, 0x01, 0x00, 0x18, 0x02, 0x00, 0x00, 0x00, 0x54, 0x00, 0xf0, 
  0xff, 0xff, 0xff, 0x17, 0x80, 0x36, 0x5a, 0x01, 0x00, 0x00, 0x00, 0x00, 
  0x02, 0x00, 0xfe, 0xff, 0xff, 0xff, 0xff, 0xff, 0xff, 0xff, 0xff, 0x07, 
  0x00, 0x20, 0x52, 0x13, 0x80, 0x04, 0x91, 0x01, 0x10, 0x84, 0x00, 0x97, 
  0x02, 0xf0, 0xff, 0xff, 0xef, 0x3f, 0x00, 0x00, 0x92, 0x40, 0x00, 0x00, 
  0x00, 0x00, 0x81, 0x01, 0xf0, 0xff, 0xff, 0xff, 0xff, 0xff, 0xff, 0xff, 
  0xff, 0x03, 0x28, 0x00, 0x0a, 0x88, 0x21, 0x60, 0x25, 0x02, 0x40, 0x00, 
  0x00, 0x58, 0x00, 0xf8, 0xff, 0xff, 0x7f, 0x2f, 0x08, 0xa2, 0x01, 0x02, 
  0x00, 0x00, 0x80, 0x00, 0x02, 0x08, 0xe0, 0xff, 0xff, 0xff, 0xff, 0xff, 
  0xff, 0xff, 0xff, 0x01, 0x00, 0x00, 0x40, 0x00, 0x00, 0x00, 0x80, 0x50, 
  0x00, 0x20, 0x00, 0x40, 0x00, 0xf8, 0xff, 0xff, 0xdf, 0x3f, 0x1a, 0x06, 
  0x54, 0x01, 0x10, 0x02, 0x40, 0x00, 0x01, 0x00, 0x02, 0xff, 0xff, 0xff, 
  0xff, 0xff, 0xff, 0xff, 0xff, 0x00, 0x00, 0x08, 0x00, 0x9a, 0x84, 0x80, 
  0x24, 0x0a, 0x84, 0x57, 0x15, 0x9a, 0x02, 0xfc, 0xff, 0xff, 0xff, 0x5e, 
  0xbd, 0xaf, 0x0a, 0x04, 0x00, 0xa0, 0x00, 0x00, 0x00, 0x00, 0x00, 0xf8, 
  0xff, 0xff, 0xff, 0xff, 0xff, 0xff, 0xff, 0x80, 0x01, 0x04, 0x88, 0x50, 
  0xc5, 0x80, 0x91, 0xaa, 0x00, 0xff, 0x1f, 0xba, 0x03, 0xfc, 0xff, 0xff, 
  0xdf, 0x5e, 0x9c, 0x2f, 0x68, 0xa2, 0x00, 0x00, 0x00, 0x00, 0x00, 0x00, 
  0x00, 0xf0, 0xff, 0xff, 0xff, 0xff, 0xff, 0xff, 0x3f, 0x94, 0x00, 0x00, 
  0x40, 0x12, 0x00, 0x01, 0x00, 0x00, 0x80, 0xbe, 0x5e, 0xc5, 0x13, 0xfe, 
  0xff, 0xff, 0xff, 0xbf, 0x7e, 0x0f, 0x85, 0x29, 0x04, 0x00, 0x00, 0x02, 
  0x00, 0x00, 0x00, 0xf0, 0xff, 0xff, 0xff, 0xff, 0xff, 0xff, 0x0f, 0xbf, 
  0xe0, 0x05, 0x00, 0x80, 0x01, 0x20, 0x06, 0x00, 0xaa, 0x61, 0xa1, 0x5a, 
  0x14, 0xfe, 0xff, 0xff, 0x7f, 0x4d, 0x7c, 0x87, 0x18, 0x4a, 0x03, 0x00, 
  0x20, 0x00, 0x00, 0x00, 0x00, 0xf0, 0xff, 0xff, 0xff, 0xff, 0xff, 0xff, 
  0x0f, 0x82, 0x02, 0x06, 0x00, 0x00, 0x24, 0x61, 0xa8, 0xf7, 0x6a, 0x56, 
  0x9a, 0x35, 0x47, 0xfe, 0xff, 0xff, 0xef, 0x7d, 0xb4, 0x07, 0x00, 0x20, 
  0x38, 0x0a, 0x00, 0x00, 0x00, 0x00, 0x00, 0xf0, 0xff, 0xff, 0xff, 0xff, 
  0xff, 0xff, 0x00, 0x00, 0x00, 0x02, 0x00, 0x00, 0x1c, 0xc0, 0x43, 0x17, 
  0x92, 0xaa, 0x96, 0xd4, 0x8e, 0xff, 0xff, 0xff, 0xd7, 0xbb, 0xbe, 0x1e, 
  0x00, 0x04, 0x00, 0x00, 0x00, 0x00, 0x00, 0x00, 0x08, 0xf0, 0xff, 0xff, 
  0xff, 0xff, 0xff, 0x1f, 0x00, 0x20, 0x44, 0x07, 0x64, 0xde, 0xf9, 0xc7, 
  0x01, 0x07, 0x00, 0x00, 0x00, 0x00, 0x00, 0xff, 0xff, 0xff, 0xff, 0x67, 
  0xff, 0xff, 0x01, 0x40, 0x40, 0x00, 0x00, 0x00, 0x00, 0x00, 0x46, 0xf0, 
  0xff, 0xff, 0xff, 0xff, 0x5f, 0x00, 0x00, 0x10, 0x90, 0x80, 0x08, 0x02, 
  0x00, 0xe0, 0x81, 0x07, 0x88, 0x10, 0x11, 0x44, 0x90, 0xff, 0xff, 0xff, 
  0xef, 0x75, 0xb4, 0x99, 0x09, 0x00, 0x00, 0x00, 0x00, 0x08, 0x00, 0x00, 
  0x00, 0xf8, 0xff, 0xff, 0xff, 0xff, 0x0f, 0x00, 0x00, 0x00, 0x00, 0x00, 
  0x00, 0x00, 0x00, 0xe0, 0xcf, 0x07, 0x00, 0x00, 0x00, 0x00, 0xa6, 0xff, 
  0xff, 0xff, 0x7f, 0x4d, 0x4a, 0x00, 0x00, 0x00, 0x00, 0x00, 0x00, 0x00, 
  0x00, 0x00, 0x00, 0x00, 0xd2, 0xff, 0xff, 0xff, 0x0f, 0x00, 0x00, 0x00, 
  0x00, 0x00, 0x00, 0x00, 0x00, 0xe0, 0x8f, 0x1f, 0x00, 0x00, 0xa0, 0xff, 
  0xdf, 0xff, 0xff, 0xff, 0x37, 0xc3, 0x68, 0x00, 0x44, 0x00, 0x00, 0x00, 
  0x00, 0x00, 0x00, 0x00, 0x00, 0x00, 0xfe, 0xff, 0xff, 0xff, 0x03, 0x00, 
  0x00, 0x00, 0x00, 0x00, 0x00, 0x00, 0x04, 0xe0, 0xcd, 0x0f, 0x00, 0x00, 
  0xb9, 0x01, 0x20, 0xfe, 0xff, 0xfb, 0xeb, 0x99, 0x03, 0x02, 0x22, 0x00, 
  0x00, 0x00, 0x00, 0x00, 0x00, 0x00, 0x00, 0x00, 0xfe, 0xff, 0xff, 0xff, 
  0x03, 0x00, 0x00, 0x00, 0x00, 0x00, 0x00, 0x00, 0x00, 0xe4, 0xdf, 0x1f, 
  0x00, 0x40, 0x3d, 0x00, 0x90, 0x7f, 0xfb, 0x6f, 0xee, 0x4d, 0x52, 0x16, 
  0x00, 0x01, 0x00, 0x00, 0x00, 0x00, 0x00, 0x00, 0x00, 0x00, 0xfe, 0xff, 
  0xff, 0xff, 0x01, 0x00, 0x00, 0x00, 0x00, 0x00, 0x00, 0x00, 0x00, 0xc0, 
  0xdf, 0x1f, 0x84, 0xf7, 0x11, 0x40, 0xfe, 0xeb, 0x5e, 0xf5, 0x3b, 0x17, 
  0x0c, 0x0d, 0x40, 0x02, 0x00, 0x00, 0x00, 0x00, 0x00, 0x00, 0x00, 0x00, 
  0xfe, 0xff, 0xff, 0xff, 0x03, 0x00, 0x00, 0x00, 0x00, 0x00, 0x00, 0x80, 
  0x20, 0xc0, 0xbf, 0x1f, 0x62, 0xfe, 0x01, 0xc0, 0xb7, 0x75, 0xd6, 0x3f, 
  0xdb, 0x16, 0xa8, 0x11, 0x00, 0x00, 0x00, 0x00, 0x00, 0x00, 0x00, 0x00, 
  0x00, 0x00, 0xfe, 0xff, 0xff, 0xff, 0x01, 0x00, 0x00, 0x00, 0x00, 0x00, 
  0x00, 0x00, 0x00, 0xc0, 0xff, 0x5f, 0xb8, 0x1f, 0x80, 0xfd, 0x6f, 0xff, 
  0xff, 0xd9, 0xae, 0x78, 0x22, 0x44, 0x04, 0x02, 0x00, 0x00, 0x00, 0x00, 
  0x00, 0x00, 0x00, 0x00, 0xfe, 0xff, 0xff, 0xff, 0x01, 0x00, 0x00, 0x00, 
  0x00, 0x00, 0x00, 0x08, 0x00, 0xc0, 0x3f, 0x8f, 0x87, 0x02, 0x88, 0xfe, 
  0xdf, 0x5e, 0x9b, 0xbf, 0x05, 0x21, 0x00, 0x84, 0x9c, 0x00, 0x00, 0x00, 
  0x00, 0x01, 0x00, 0x00, 0x00, 0x00, 0xfe, 0xff, 0xff, 0xff, 0x03, 0x00, 
  0x00, 0x00, 0x00, 0x00, 0x00, 0x00, 0x04, 0xc8, 0xbf, 0x7f, 0x58, 0x48, 
  0xfa, 0xff, 0x37, 0xfb, 0xfe, 0xd4, 0xfa, 0xeb, 0x4b, 0x91, 0x11, 0x12, 
  0x00, 0x00, 0x00, 0x00, 0x00, 0x00, 0x00, 0x00, 0xfe, 0xff, 0xff, 0xff, 
  0x03, 0x00, 0x00, 0x00, 0x00, 0x00, 0x01, 0x00, 0x02, 0xc4, 0xff, 0xff, 
  0x77, 0x91, 0xfa, 0x7f, 0x6e, 0x9d, 0xed, 0x5d, 0x85, 0xa7, 0x54, 0x02, 
  0x23, 0x00, 0x00, 0x00, 0x08, 0x08, 0x00, 0x00, 0x00, 0x00, 0xfe, 0xff, 
  0xff, 0xff, 0x03, 0x00, 0x00, 0x00, 0x40, 0x00, 0x00, 0x00, 0x10, 0xe0, 
  0xff, 0xff, 0xff, 0xbf, 0xff, 0xea, 0xff, 0xfb, 0x5b, 0x66, 0x7a, 0x0e, 
  0xef, 0xa4, 0x82, 0x01, 0x00, 0x10, 0x00, 0x00, 0x00, 0x00, 0x00, 0x00, 
  0xfe, 0xff, 0xff, 0xff, 0x03, 0x00, 0x00, 0x00, 0x00, 0x00, 0x80, 0x00, 
  0x00, 0xf0, 0xff, 0x89, 0xff, 0x7f, 0xff, 0xfd, 0x65, 0x2f, 0xaa, 0xd9, 
  0xa9, 0x9d, 0xde, 0x91, 0x54, 0x64, 0x80, 0x00, 0x00, 0x04, 0x00, 0x00, 
  0x00, 0x00, 0xfe, 0xff, 0xff, 0xff, 0x03, 0x00, 0x00, 0x00, 0x00, 0x00, 
  0x00, 0x22, 0x00, 0xf0, 0xbf, 0x1f, 0x7e, 0xfa, 0x57, 0xe7, 0xff, 0xf6, 
  0xb5, 0x25, 0x4e, 0x21, 0x18, 0x09, 0x0a, 0x05, 0x04, 0x06, 0x40, 0x00, 
  0x00, 0x00, 0x00, 0x00, 0xfe, 0xff, 0xff, 0xff, 0x03, 0x00, 0x00, 0x00, 
  0x00, 0x00, 0x00, 0x00, 0x00, 0xfc, 0xbf, 0x5b, 0x7f, 0xfb, 0x7b, 0x76, 
  0xdf, 0x7b, 0xa5, 0x9d, 0xd9, 0xe2, 0xb2, 0x56, 0x05, 0x00, 0x10, 0x10, 
  0x02, 0x00, 0x00, 0x00, 0x00, 0x00, 0xfe, 0xff, 0xff, 0xff, 0x07, 0x00, 
  0x00, 0x00, 0x00, 0x80, 0x00, 0x80, 0x01, 0xff, 0x7f, 0x1b, 0xff, 0xff, 
  0xdf, 0xff, 0xfb, 0xdd, 0x1b, 0x7a, 0x06, 0x88, 0x65, 0x00, 0x20, 0x27, 
  0x08, 0x00, 0x00, 0x02, 0x00, 0x00, 0x00, 0x00, 0xfe, 0xff, 0xff, 0xff, 
  0x07, 0x00, 0x00, 0x00, 0x00, 0x00, 0x00, 0x00, 0xe0, 0xf9, 0x7f, 0xcd, 
  0xff, 0x7f, 0xed, 0xe7, 0x7d, 0xdb, 0x6b, 0x69, 0x70, 0xa8, 0xc1, 0x49, 
  0x9a, 0x01, 0x04, 0x00, 0x80, 0x00, 0x00, 0x00, 0x00, 0x00, 0xfe, 0xff, 
  0xff, 0xff, 0x0f, 0x00, 0x00, 0x00, 0x00, 0x00, 0x80, 0x00, 0x78, 0xfc, 
  0xff, 0x7f, 0xff, 0xf9, 0xb5, 0x7e, 0xef, 0xff, 0xde, 0x96, 0xef, 0x43, 
  0x97, 0x49, 0x60, 0xa0, 0x03, 0x00, 0x00, 0x00, 0x00, 0x00, 0x00, 0x00, 
  0xfe, 0xff, 0xff, 0xff, 0x0f, 0x00, 0x00, 0x00, 0x00, 0x00, 0x00, 0x00, 
  0x3e, 0xf8, 0xff, 0xbf, 0x9f, 0xff, 0xdb, 0xee, 0xbb, 0x3f, 0xdf, 0xb4, 
  0xd5, 0x89, 0x96, 0x01, 0x4c, 0x90, 0x00, 0x08, 0x10, 0x08, 0x00, 0x00, 
  0x00, 0x00, 0xfe, 0xff, 0xff, 0xff, 0x0f, 0x00, 0x00, 0x00, 0x00, 0x01, 
  0x00, 0x80, 0x07, 0xfe, 0xff, 0xef, 0xf7, 0x69, 0x7f, 0xff, 0xff, 0xf6, 
  0x99, 0x6f, 0xde, 0xb7, 0x81, 0xa5, 0x21, 0x2d, 0x00, 0x00, 0x00, 0x00, 
  0x00, 0x00, 0x00, 0x00, 0xfe, 0xff, 0xff, 0xff, 0x0f, 0x00, 0x00, 0x00, 
  0x00, 0x00, 0x80, 0xd0, 0x81, 0xf0, 0xff, 0xff, 0xff, 0xdb, 0xfe, 0xff, 
  0xff, 0xdf, 0xbf, 0x99, 0x65, 0x27, 0x24, 0x63, 0xa8, 0x00, 0x00, 0x00, 
  0x04, 0x00, 0x00, 0x00, 0x00, 0x00, 0xfe, 0xff, 0xff, 0xff, 0x0f, 0x00, 
  0x00, 0x00, 0x20, 0x00, 0x04, 0x7e, 0x88, 0xf7, 0xff, 0xff, 0xb7, 0xff, 
  0xdf, 0xff, 0x67, 0x36, 0xe4, 0xa7, 0xda, 0x5a, 0x4a, 0x47, 0x11, 0x00, 
  0x00, 0x00, 0x00, 0x04, 0x00, 0x00, 0x00, 0x00, 0xfe, 0xff, 0xff, 0xff, 
  0x1f, 0x00, 0x00, 0x00, 0x00, 0x00, 0x04, 0x3f, 0x26, 0xff, 0xff, 0xff, 
  0xd6, 0xdf, 0xd6, 0xff, 0xed, 0xdf, 0x6f, 0x12, 0xc5, 0x6b, 0x43, 0x52, 
  0xa2, 0x9b, 0x02, 0x84, 0x81, 0x00, 0x00, 0x00, 0x00, 0x00, 0xfe, 0xff, 
  0xff, 0xff, 0x1f, 0x00, 0x00, 0x00, 0x00, 0x80, 0x80, 0x4f, 0x94, 0xff, 
  0xff, 0x6f, 0xff, 0xfb, 0xff, 0xfd, 0x7f, 0xbb, 0xa5, 0x6e, 0x7b, 0xdb, 
  0x98, 0x8c, 0x0a, 0x00, 0x98, 0x00, 0x10, 0x09, 0x00, 0x00, 0x00, 0x00, 
  0xfe, 0xff, 0xff, 0xff, 0x1f, 0x00, 0x00, 0x00, 0x01, 0x00, 0xe0, 0x07, 
  0x09, 0xff, 0xff, 0xff, 0xef, 0x7f, 0x7f, 0xff, 0xff, 0xfe, 0xff, 0xbd, 
  0x66, 0x65, 0x6a, 0x57, 0x28, 0x10, 0x10, 0x11, 0x08, 0x00, 0x00, 0x00, 
  0x00, 0x00, 0xfe, 0xff, 0xff, 0xff, 0x1f, 0x00, 0x80, 0x00, 0x20, 0x81, 
  0xf0, 0xf3, 0x7d, 0xfe, 0xff, 0xdf, 0xfd, 0xee, 0xdd, 0xff, 0xdb, 0x6b, 
  0x99, 0x7f, 0xa9, 0x92, 0x94, 0x28, 0x41, 0x84, 0x00, 0x00, 0x00, 0x00, 
  0x00, 0x00, 0x00, 0x00, 0xfc, 0xff, 0xff, 0xff, 0x1f, 0x00, 0x00, 0x00, 
  0x00, 0x00, 0x70, 0xfb, 0x1f, 0xfe, 0xff, 0xff, 0xff, 0xfe, 0xde, 0x7e, 
  0xff, 0xfb, 0xe9, 0x9f, 0xd5, 0x92, 0x9a, 0x26, 0x84, 0x08, 0x21, 0x00, 
  0x10, 0x00, 0x00, 0x00, 0x00, 0x00, 0xfe, 0xff, 0xff, 0xff, 0x3f, 0x00, 
  0x00, 0x00, 0x00, 0x08, 0x74, 0x66, 0x81, 0xff, 0xff, 0xff, 0xf7, 0xdf, 
  0xff, 0xff, 0xff, 0xbf, 0xbf, 0xfd, 0x2a, 0x99, 0x41, 0x40, 0x10, 0x10, 
  0x08, 0x00, 0x00, 0x01, 0x00, 0x00, 0x00, 0x00, 0xfe, 0xff, 0xff, 0xff, 
  0x3f, 0x00, 0x00, 0x00, 0x00, 0x00, 0xce, 0x97, 0xd4, 0xff, 0xff, 0xff, 
  0xdf, 0xf7, 0xf7, 0xff, 0xff, 0xad, 0x55, 0xbe, 0x65, 0xaa, 0x7d, 0x1b, 
  0x00, 0x02, 0x00, 0x00, 0x00, 0x00, 0x00, 0x00, 0x00, 0x00, 0xfe, 0xff, 
  0xff, 0xff, 0x7f, 0x00, 0x00, 0x00, 0x00, 0x80, 0x03, 0xcc, 0xfd, 0xff, 
  0xff, 0xff, 0xfb, 0xff, 0x7f, 0xeb, 0xff, 0xfb, 0x77, 0x7e, 0xda, 0x57, 
  0x82, 0x40, 0x89, 0x28, 0x00, 0x10, 0x02, 0x00, 0x00, 0x00, 0x00, 0x00, 
  0xfe, 0xff, 0xff, 0xff, 0x3f, 0x00, 0x00, 0x00, 0x00, 0x80, 0x81, 0xaf, 
  0xf5, 0xff, 0xff, 0xff, 0xff, 0xbf, 0x7f, 0xfd, 0xff, 0xf7, 0xef, 0xf7, 
  0xfe, 0x5c, 0x05, 0x21, 0x04, 0x00, 0x22, 0x00, 0x00, 0x00, 0x00, 0x00, 
  0x00, 0x00, 0xfe, 0xff, 0xff, 0xff, 0x3f, 0x00, 0x00, 0x00, 0x14, 0x60, 
  0x64, 0x59, 0xee, 0xff, 0xff, 0xff, 0xff, 0xf7, 0xff, 0xff, 0xff, 0xbf, 
  0xb5, 0xed, 0x6b, 0xa7, 0x61, 0x04, 0x40, 0x11, 0x00, 0x00, 0x80, 0x00, 
  0x00, 0x00, 0x00, 0x00, 0xfe, 0xff, 0xff, 0xff, 0x7f, 0x00, 0x00, 0x00, 
  0x00, 0xb0, 0x98, 0xdc, 0xff, 0xff, 0xff, 0xff, 0xff, 0xff, 0xff, 0x7f, 
  0xff, 0x5d, 0x5e, 0xf9, 0x87, 0x15, 0x00, 0x48, 0x22, 0x08, 0x20, 0x00, 
  0x00, 0x00, 0x00, 0x00, 0x00, 0x00, 0xfc, 0xff, 0xff, 0xff, 0xff, 0x00, 
  0x00, 0x00, 0x00, 0x38, 0x62, 0xf7, 0xff, 0xff, 0xff, 0xff, 0xfd, 0xff, 
  0xfd, 0xdf, 0xff, 0xff, 0xdb, 0xdf, 0x79, 0x6a, 0x5a, 0x52, 0x84, 0x80, 
  0x00, 0x40, 0x00, 0x01, 0x00, 0x00, 0x00, 0x00, 0xfe, 0xff, 0xff, 0xff, 
  0xff, 0x00, 0x00, 0x00, 0x00, 0x2e, 0xb5, 0xfe, 0xff, 0xfd, 0xff, 0xff, 
  0xff, 0xff, 0xff, 0xff, 0xff, 0xde, 0x7f, 0x6e, 0x04, 0xaa, 0x05, 0x24, 
  0x08, 0x00, 0x84, 0x00, 0x02, 0x00, 0x00, 0x00, 0x00, 0x00, 0xfe, 0xff, 
  0xff, 0xff, 0x7f, 0x00, 0x00, 0x00, 0x00, 0x87, 0xd8, 0xfd, 0xff, 0xff, 
  0xff, 0xff, 0xff, 0xff, 0xff, 0xff, 0xf7, 0xff, 0xfa, 0xef, 0x5b, 0x51, 
  0x40, 0x02, 0x00, 0x00, 0x00, 0x20, 0x84, 0x0a, 0x00, 0x00, 0x00, 0x00, 
  0xfe, 0xff, 0xff, 0xff, 0xff, 0x00, 0x00, 0x00, 0x80, 0x80, 0x3f, 0xf7, 
  0xdf, 0xff, 0xff, 0xff, 0xff, 0xff, 0xff, 0xff, 0xbf, 0x7f, 0xff, 0x3f, 
  0x1a, 0x64, 0x50, 0x94, 0x06, 0x00, 0x00, 0x02, 0x10, 0x00, 0x00, 0x00, 
  0x00, 0x00, 0xfc, 0xff, 0xff, 0xff, 0xff, 0x00, 0x00, 0x00, 0x60, 0xb4, 
  0xe3, 0xfd, 0xff, 0xff, 0xff, 0xff, 0xff, 0xff, 0xff, 0xff, 0xff, 0xff, 
  0xbf, 0xfd, 0x45, 0x02, 0x06, 0x00, 0x00, 0x48, 0x22, 0x00, 0x00, 0x08, 
  0x00, 0x00, 0x00, 0x00, 0xfc, 0xff, 0xff, 0xff, 0xff, 0x00, 0x00, 0x00, 
  0x30, 0xb9, 0xfa, 0xdf, 0xff, 0xff, 0xff, 0xff, 0xff, 0xff, 0xff, 0xff, 
  0xff, 0xff, 0xdf, 0xd7, 0x6d, 0x01, 0x12, 0x82, 0x00, 0x00, 0x00, 0x00, 
  0x44, 0x01, 0x00, 0x00, 0x00, 0x00, 0xfe, 0xff, 0xff, 0xff, 0xff, 0x00, 
  0x80, 0x04, 0xe0, 0xcc, 0xbf, 0xff, 0xfd, 0xff, 0xff, 0xff, 0xff, 0xff, 
  0xff, 0xff, 0xff, 0xf7, 0xfe, 0xfe, 0x6f, 0x77, 0x00, 0x00, 0x44, 0x00, 
  0x00, 0x80, 0x00, 0x02, 0x00, 0x00, 0x00, 0x00, 0xfe, 0xff, 0xff, 0xff, 
  0xff, 0x00, 0x08, 0x00, 0x20, 0x92, 0xee, 0xff, 0xff, 0xff, 0xff, 0xff, 
  0xff, 0xff, 0xff, 0xff, 0xff, 0xd7, 0xbf, 0xff, 0xbf, 0xae, 0x04, 0x00, 
  0x04, 0x04, 0x80, 0x19, 0x6a, 0x04, 0x00, 0x00, 0x00, 0x00, 0xfe, 0xff, 
  0xff, 0xff, 0xff, 0x01, 0x00, 0x00, 0x00, 0xad, 0xbb, 0x7f, 0xef, 0xff, 
  0xff, 0xff, 0xff, 0xff, 0xff, 0xff, 0xfb, 0x3f, 0xa1, 0x9e, 0xa0, 0x00, 
  0xa4, 0x26, 0x00, 0x00, 0x10, 0x00, 0x00, 0x00, 0x00, 0x00, 0x00, 0x00, 
  0xfc, 0xff, 0xff, 0xff, 0xff, 0x91, 0x00, 0x60, 0x82, 0xf2, 0xfe, 0xff, 
  0xff, 0xff, 0xff, 0xff, 0xff, 0xff, 0xff, 0xff, 0xff, 0x77, 0x14, 0x57, 
  0x09, 0x58, 0x29, 0x24, 0x04, 0x10, 0x00, 0x40, 0x04, 0x04, 0x00, 0x00, 
  0x00, 0x00, 0xfe, 0xff, 0xff, 0xff, 0xff, 0x07, 0x00, 0x00, 0xf8, 0x5f, 
  0xdb, 0xff, 0xff, 0xff, 0xff, 0xff, 0xff, 0xff, 0xff, 0xff, 0x9e, 0xd9, 
  0xff, 0xff, 0xf7, 0x27, 0x00, 0x02, 0x20, 0x89, 0x42, 0x02, 0x60, 0x02, 
  0x00, 0x00, 0x00, 0x00, 0xfe, 0xff, 0xff, 0xff, 0xff, 0x21, 0x40, 0x00, 
  0xa4, 0xde, 0xff, 0xff, 0xff, 0xff, 0xff, 0xff, 0xff, 0xff, 0xff, 0x7f, 
  0x7a, 0xaf, 0xdd, 0xdf, 0xbf, 0x1b, 0x1a, 0xc4, 0xcb, 0x90, 0x06, 0x08, 
  0x01, 0x04, 0x00, 0x00, 0x00, 0x00, 0xfc, 0xff, 0xff, 0xff, 0xff, 0x03, 
  0x1c, 0x08, 0x5a, 0xf3, 0xbd, 0xff, 0xff, 0xff, 0xff, 0xff, 0xff, 0xff, 
  0xff, 0xff, 0xff, 0xb5, 0xf5, 0xff, 0xfe, 0x6d, 0x80, 0x00, 0x22, 0x02, 
  0x20, 0x00, 0x00, 0x00, 0x00, 0x00, 0x00, 0x00, 0xfe, 0xff, 0xff, 0xff, 
  0xff, 0xa3, 0x0a, 0x00, 0xc6, 0x7d, 0xff, 0xff, 0xff, 0xff, 0xff, 0xff, 
  0xff, 0xff, 0xff, 0xfa, 0xff, 0x7f, 0x7d, 0xee, 0xbf, 0x3d, 0x04, 0x00, 
  0x00, 0x10, 0x00, 0x00, 0x00, 0x00, 0x00, 0x00, 0x00, 0x00, 0xfe, 0xff, 
  0xff, 0xff, 0xff, 0x03, 0x80, 0xc1, 0x7a, 0xff, 0xfe, 0xff, 0xff, 0xff, 
  0xff, 0xff, 0xff, 0xff, 0x5f, 0xdb, 0xff, 0xfb, 0xef, 0x9f, 0xf6, 0xe7, 
  0x01, 0x00, 0x00, 0x00, 0x00, 0x00, 0x00, 0x08, 0x00, 0x00, 0x00, 0x00, 
  0xfc, 0xff, 0xff, 0xff, 0xff, 0x87, 0x01, 0x40, 0xe5, 0xfd, 0xff, 0xff, 
  0xff, 0xff, 0xff, 0xff, 0xff, 0xff, 0xb7, 0xff, 0xfd, 0x9e, 0xfe, 0x00, 
  0xe0, 0x76, 0x00, 0x00, 0x00, 0x00, 0x24, 0x54, 0x94, 0x00, 0x00, 0x00, 
  0x00, 0x00, 0xfe, 0xff, 0xff, 0xff, 0xff, 0x0f, 0x20, 0x28, 0x7a, 0xf7, 
  0xff, 0xff, 0xff, 0xff, 0xff, 0xff, 0xff, 0xff, 0xff, 0x3d, 0x26, 0xfa, 
  0x77, 0x5d, 0x02, 0x02, 0x10, 0x0a, 0x00, 0x00, 0xa8, 0x02, 0x00, 0x00, 
  0x00, 0x00, 0x00, 0x00, 0xfc, 0xff, 0xff, 0xff, 0xff, 0x8f, 0x20, 0xd8, 
  0xfd, 0xff, 0xff, 0xff, 0xff, 0xff, 0xff, 0xff, 0xf7, 0xfe, 0xff, 0xff, 
  0xfb, 0xd9, 0xbd, 0x1e, 0x00, 0x60, 0x00, 0x00, 0x20, 0x00, 0x00, 0x00, 
  0x00, 0x00, 0x00, 0x00, 0x00, 0x00, 0xfe, 0xff, 0xff, 0xff, 0xff, 0x1f, 
  0x02, 0x42, 0xeb, 0xfd, 0xff, 0xff, 0xff, 0xff, 0xff, 0xff, 0xff, 0xef, 
  0xfb, 0x6b, 0x04, 0xa9, 0xd7, 0x43, 0x92, 0x14, 0x01, 0x84, 0x81, 0x45, 
  0x00, 0x9a, 0x49, 0x02, 0x00, 0x00, 0x00, 0x00, 0xfe, 0xff, 0xff, 0xff, 
  0xff, 0xff, 0xaf, 0xbf, 0xfd, 0xff, 0xff, 0xff, 0xff, 0xff, 0xff, 0xff, 
  0xfb, 0xbf, 0xbc, 0xbf, 0xbf, 0xd5, 0x39, 0x40, 0x0a, 0x02, 0x10, 0x00, 
  0x00, 0x54, 0x49, 0x08, 0x00, 0x00, 0x00, 0x00, 0x00, 0x00, 0xfe, 0xff, 
  0xff, 0xff, 0xff, 0xff, 0xff, 0xff, 0xff, 0xff, 0xff, 0xff, 0xff, 0xff, 
  0xff, 0xff, 0xbf, 0xf7, 0x5f, 0xfe, 0xe7, 0x6a, 0xed, 0x2f, 0x40, 0x2c, 
  0x8a, 0x22, 0x24, 0x00, 0x00, 0x00, 0x00, 0x08, 0x00, 0x00, 0x00, 0x00, 
  0xfc, 0xff, 0xff, 0xff, 0xff, 0xff, 0xf9, 0xff, 0xff, 0xff, 0xf7, 0xff, 
  0x7f, 0xe6, 0xff, 0xff, 0xdf, 0xff, 0xed, 0x95, 0x64, 0x55, 0xdd, 0x03, 
  0x0a, 0x02, 0x04, 0x40, 0x20, 0x00, 0x20, 0x00, 0x00, 0x00, 0x00, 0x00, 
  0x00, 0x00, 0xfc, 0xff, 0xff, 0xff, 0xff, 0xff, 0xff, 0xef, 0x5f, 0xfa, 
  0x9f, 0x9b, 0xe3, 0xff, 0xff, 0xff, 0xff, 0x95, 0x17, 0x2a, 0x9a, 0xae, 
  0x76, 0x52, 0x20, 0x20, 0x00, 0x00, 0x00, 0x00, 0x04, 0x80, 0x00, 0x04, 
  0x00, 0x00, 0x00, 0x00, 0xfe, 0xff, 0xff, 0xff, 0xff, 0xff, 0xff, 0x5f, 
  0xcc, 0x6a, 0xab, 0xcb, 0x7e, 0xbf, 0xff, 0xff, 0xff, 0x7f, 0x6a, 0x78, 
  0x66, 0xe5, 0xa5, 0x87, 0x00, 0x00, 0x00, 0x00, 0x00, 0x00, 0x00, 0x00, 
  0x00, 0x00, 0x00, 0x00, 0x00, 0x00, 0xfc, 0xff, 0xff, 0xff, 0xff, 0xff, 
  0x5f, 0xa0, 0x22, 0x95, 0x56, 0x76, 0xb5, 0xd6, 0xff, 0xf7, 0x6f, 0xff, 
  0xd5, 0x55, 0x99, 0x6a, 0xda, 0x1a, 0x80, 0x10, 0x11, 0x00, 0x00, 0x00, 
  0x00, 0x00, 0x00, 0x00, 0x00, 0x00, 0x00, 0x00, 0xfc, 0xff, 0xff, 0xff, 
  0xff, 0xff, 0x9b, 0xa0, 0x6a, 0x95, 0xbe, 0xd6, 0xd9, 0xea, 0xff, 0xff, 
  0xef, 0xfc, 0xb7, 0x55, 0xa8, 0x96, 0x5d, 0x00, 0x08, 0x00, 0x00, 0x22, 
  0x00, 0x00, 0x00, 0x00, 0x80, 0x00, 0x00, 0x00, 0x00, 0x00, 0xfe, 0xff, 
  0xff, 0xff, 0xff, 0xff, 0x24, 0x0b, 0x00, 0x48, 0x41, 0x3b, 0x65, 0xe1, 
  0xff, 0x7f, 0xfc, 0xef, 0x9f, 0x9e, 0x63, 0x69, 0x02, 0xa8, 0x00, 0x00, 
  0x00, 0x00, 0x00, 0x00, 0x00, 0x00, 0x00, 0x00, 0x00, 0x00, 0x00, 0x00, 
  0xfe, 0xff, 0xff, 0xff, 0xff, 0x5f, 0x49, 0x00, 0xa2, 0xa2, 0x80, 0xc8, 
  0xbb, 0xe0, 0xff, 0x5f, 0x4a, 0x62, 0xf6, 0x3d, 0x94, 0x00, 0x00, 0x00, 
  0x01, 0x00, 0x00, 0x00, 0x00, 0x00, 0x00, 0x00, 0x00, 0x00, 0x00, 0x00, 
  0x00, 0x10, 0xfe, 0xff, 0xff, 0xff, 0xff, 0xef, 0x09, 0x61, 0x04, 0x84, 
  0xa5, 0x2a, 0x46, 0xfe, 0xff, 0xff, 0x97, 0x99, 0x49, 0xd5, 0x4b, 0xb6, 
  0x59, 0x44, 0x48, 0x00, 0x08, 0x00, 0x00, 0x00, 0x00, 0x00, 0x42, 0x08, 
  0x00, 0x00, 0x00, 0x00, 0xfc, 0xff, 0xff, 0xff, 0xff, 0x3f, 0x18, 0x20, 
  0xc0, 0x04, 0xe8, 0xab, 0xb9, 0xff, 0xff, 0x3f, 0xaa, 0x6a, 0x2a, 0xda, 
  0xa5, 0xa8, 0xa4, 0x41, 0x22, 0x04, 0x00, 0x00, 0x40, 0x00, 0x00, 0x00, 
  0x00, 0x00, 0x00, 0x80, 0x00, 0x00, 0xfc, 0xff, 0xff, 0xff, 0xff, 0x2f, 
  0x00, 0x04, 0x02, 0x51, 0x22, 0x72, 0xae, 0xf7, 0xff, 0xef, 0x45, 0x85, 
  0x94, 0x25, 0x59, 0x82, 0x57, 0x3a, 0x00, 0x00, 0x00, 0x00, 0x01, 0x00, 
  0x00, 0x00, 0x80, 0x0a, 0x00, 0x00, 0x60, 0x62, 0xfe, 0xff, 0xff, 0xff, 
  0xff, 0x51, 0x82, 0x40, 0x68, 0x54, 0x08, 0x97, 0xa1, 0xb0, 0xff, 0xa7, 
  0x9b, 0x3a, 0x65, 0x01, 0x20, 0xd5, 0xb9, 0x43, 0x89, 0x40, 0x00, 0x00, 
  0x00, 0x00, 0x00, 0x00, 0x04, 0x00, 0x00, 0x00, 0x00, 0x00, 0xfe, 0xff, 
  0xff, 0xff, 0xff, 0x0b, 0x00, 0x00, 0x00, 0x02, 0x13, 0x00, 0x56, 0xff, 
  0xff, 0xbf, 0xf6, 0x81, 0x08, 0x6c, 0x46, 0x2a, 0xde, 0xff, 0x2b, 0x21, 
  0x99, 0x12, 0x00, 0x00, 0x00, 0x90, 0x11, 0x00, 0x00, 0x00, 0x00, 0xe0, 
  0xfe, 0xff, 0xff, 0xff, 0xff, 0x01, 0x00, 0x00, 0x41, 0x81, 0x84, 0x10, 
  0xc8, 0xf7, 0xff, 0x7b, 0x15, 0xba, 0x9b, 0x22, 0x01, 0xa9, 0xda, 0xdf, 
  0x14, 0x08, 0x00, 0x10, 0x20, 0x02, 0x00, 0x05, 0x00, 0x00, 0x00, 0x00, 
  0x20, 0x04, 0xfc, 0xff, 0xff, 0xff, 0xff, 0x69, 0x01, 0x00, 0x14, 0x18, 
  0x10, 0x55, 0x12, 0xfe, 0x2f, 0xad, 0xf7, 0x0d, 0x40, 0x84, 0xbc, 0x0a, 
  0xa5, 0x39, 0x8a, 0x15, 0x01, 0x00, 0x00, 0x20, 0x58, 0x00, 0x00, 0x00, 
  0x00, 0x00, 0x80, 0x04, 0xfe, 0xff, 0xff, 0xff, 0xff, 0x0b, 0x00, 0xb1, 
  0x00, 0x40, 0x61, 0x09, 0x16, 0xa2, 0xfb, 0x67, 0x0a, 0x40, 0x29, 0x2a, 
  0x02, 0x80, 0xfa, 0xeb, 0x69, 0x60, 0x54, 0x00, 0x00, 0x00, 0x62, 0x01, 
  0x00, 0x00, 0x00, 0x04, 0x70, 0x5d, 0xfe, 0xff, 0xff, 0xff, 0xff, 0x2f, 
  0x48, 0x00, 0x95, 0x99, 0x8a, 0xa2, 0x44, 0x58, 0xbe, 0x59, 0x62, 0x15, 
  0xa0, 0x90, 0x64, 0x3a, 0x52, 0x0d, 0xa4, 0x2b, 0x12, 0x01, 0x00, 0x08, 
  0x00, 0x00, 0x00, 0x00, 0x00, 0x20, 0x02, 0x00, 0xfc, 0xff, 0xff, 0xff, 
  0xff, 0x1b, 0x40, 0x00, 0x00, 0x50, 0x58, 0xb3, 0xa9, 0xed, 0xe5, 0x86, 
  0xa5, 0x10, 0x0a, 0x00, 0x99, 0xa2, 0x4d, 0x82, 0x29, 0x28, 0x02, 0x00, 
  0x00, 0x00, 0x00, 0x48, 0x10, 0x00, 0x00, 0x00, 0x00, 0x00, 0xfe, 0xff, 
  0xff, 0xff, 0x1f, 0x41, 0x12, 0x01, 0x00, 0x04, 0xa2, 0x4a, 0xda, 0x9a, 
  0xff, 0x5c, 0x4a, 0x6a, 0x04, 0x00, 0x00, 0x00, 0x00, 0x00, 0x00, 0x00, 
  0x00, 0x00, 0x00, 0x00, 0x00, 0x00, 0x08, 0x00, 0x01, 0x00, 0x00, 0x00, 
  0xfe, 0xff, 0xff, 0xff, 0x9f, 0x81, 0x42, 0x00, 0x80, 0x68, 0x55, 0xa1, 
  0x42, 0xa0, 0xff, 0x3f, 0x99, 0x8a, 0x13, 0x00, 0x00, 0x00, 0x00, 0x00, 
  0x00, 0x00, 0x00, 0x00, 0x00, 0x00, 0x00, 0x05, 0x00, 0x00, 0x00, 0x00, 
  0x00, 0x00, 0xfc, 0xff, 0xff, 0xff, 0xff, 0x95, 0x88, 0x0b, 0x52, 0x81, 
  0x40, 0x8c, 0x99, 0x45, 0x25, 0x49, 0x80, 0x10, 0xf8, 0x5f, 0x00, 0x00, 
  0x00, 0x00, 0x00, 0x00, 0x00, 0x00, 0x00, 0x00, 0x00, 0x00, 0x40, 0x02, 
  0x00, 0x00, 0x00, 0x80, 0xfe, 0xff, 0xff, 0xff, 0xff, 0x47, 0x09, 0x3a, 
  0x54, 0x28, 0xa0, 0x5a, 0x54, 0x21, 0x52, 0x57, 0x01, 0x14, 0x82, 0xfd, 
  0xaf, 0x22, 0x00, 0x00, 0x00, 0x00, 0x00, 0x00, 0x00, 0x00, 0x00, 0x00, 
  0x00, 0x04, 0x00, 0x00, 0x00, 0x00, 0xf1, 0xff, 0xff, 0xff, 0xff, 0x03, 
  0x51, 0xa0, 0x85, 0x01, 0x85, 0x00, 0x00, 0x80, 0x04, 0x08, 0x68, 0x41, 
  0x00, 0x00, 0xfe, 0xbf, 0x1f, 0x01, 0x00, 0x00, 0x00, 0x00, 0x00, 0x00, 
  0x00, 0x0c, 0x20, 0x00, 0x00, 0x00, 0x00, 0x00, 0xf8, 0xff, 0xff, 0xff, 
  0xff, 0x03, 0x08, 0x00, 0x60, 0x4a, 0x48, 0x01, 0x00, 0x08, 0x02, 0x52, 
  0x81, 0x24, 0x11, 0x20, 0x20, 0xf6, 0xe6, 0x03, 0x48, 0x41, 0x00, 0x00, 
  0x00, 0x00, 0x40, 0x01, 0x40, 0x02, 0x00, 0x00, 0x00, 0x00, 0xf8, 0xff, 
  0xff, 0xff, 0xff, 0x43, 0x00, 0x44, 0x05, 0x20, 0x12, 0x24, 0x00, 0x20, 
  0x10, 0x00, 0x28, 0xa5, 0x05, 0x80, 0x04, 0x00, 0x00, 0xa0, 0x21, 0x04, 
  0xc1, 0x6d, 0x6e, 0xd5, 0xb5, 0x00, 0x98, 0x04, 0x00, 0x00, 0x00, 0x00, 
  0xf4, 0xff, 0xff, 0xff, 0xff, 0x27, 0x41, 0x90, 0x50, 0x52, 0x01, 0x02, 
  0x00, 0x80, 0x90, 0x01, 0x21, 0x08, 0x02, 0x10, 0x01, 0x99, 0x01, 0x00, 
  0x80, 0x00, 0x20, 0x80, 0xa2, 0x04, 0x00, 0x00, 0x40, 0x00, 0x00, 0x00, 
  0x00, 0x00, 0xfc, 0xff, 0xff, 0xff, 0xff, 0x00, 0x00, 0x02, 0x08, 0x08, 
  0xd8, 0x14, 0x81, 0x15, 0x01, 0x68, 0x00, 0x80, 0x90, 0x01, 0x80, 0x00, 
  0x01, 0x00, 0x00, 0x02, 0x80, 0x04, 0x00, 0x00, 0x00, 0x00, 0x00, 0x08, 
  0x00, 0x00, 0x00, 0x00, 0xf0, 0xff, 0xff, 0xff, 0xff, 0x81, 0x04, 0x00, 
  0x20, 0x60, 0x02, 0x0d, 0x08, 0x00, 0x0a, 0x00, 0xa5, 0x51, 0x04, 0x09, 
  0x00, 0x00, 0x00, 0x00, 0x00, 0x00, 0x08, 0x10, 0x00, 0x00, 0x00, 0x40, 
  0x61, 0x0a, 0x00, 0x00, 0x00, 0x00, 0xfc, 0xff, 0xff, 0xff, 0xff, 0x05, 
  0x00, 0x00, 0x00, 0x00, 0xa4, 0xf0, 0x5b, 0x25, 0x90, 0x4a, 0x00, 0x04, 
  0x23, 0x40, 0x24, 0x62, 0x01, 0x00, 0x00, 0x00, 0x00, 0x00, 0x02, 0x80, 
  0x00, 0x20, 0x09, 0x02, 0x00, 0x00, 0x00, 0x00, 0xf0, 0xff, 0xff, 0xff, 
  0x7f, 0xc0, 0x49, 0x26, 0x00, 0x51, 0x0a, 0xaa, 0x80, 0x93, 0xa4, 0x10, 
  0x40, 0x05, 0x50, 0x88, 0x05, 0xf8, 0x03, 0x00, 0x00, 0x00, 0x00, 0x00, 
  0x00, 0x00, 0x00, 0x52, 0x40, 0x01, 0x00, 0x00, 0x00, 0x00, 0xf0, 0xff, 
  0xff, 0xff, 0x7f, 0x05, 0xa6, 0x80, 0x5c, 0x08, 0x60, 0x00, 0x29, 0x5a, 
  0x00, 0x6a, 0x26, 0x50, 0x02, 0x01, 0x54, 0x01, 0x04, 0x00, 0x00, 0x00, 
  0x00, 0x00, 0x00, 0x00, 0xa0, 0x96, 0x19, 0x00, 0x00, 0x00, 0x00, 0x00, 
  0xf8, 0xff, 0xff, 0xff, 0xff, 0xa1, 0x00, 0x01, 0x40, 0x45, 0x02, 0x02, 
  0x82, 0x00, 0x00, 0x14, 0x08, 0x84, 0x48, 0x08, 0x90, 0x59, 0x18, 0x00, 
  0x00, 0x00, 0x00, 0x00, 0x00, 0x20, 0xbd, 0x40, 0x00, 0x06, 0x00, 0x00, 
  0x00, 0x00, 0xfc, 0xff, 0xff, 0xff, 0x3f, 0x08, 0x6a, 0xa6, 0x12, 0x20, 
  0x5a, 0x91, 0x00, 0x04, 0x08, 0x40, 0xa1, 0x02, 0x22, 0x92, 0x04, 0x00, 
  0xf4, 0x17, 0x00, 0x00, 0x00, 0x00, 0x00, 0xaa, 0x02, 0x01, 0x42, 0x00, 
  0x00, 0x00, 0x00, 0x00, 0xfc, 0xff, 0xff, 0xff, 0xbf, 0x00, 0x00, 0x00, 
  0x00, 0x40, 0xa4, 0x18, 0x11, 0x02, 0x05, 0x00, 0x14, 0x20, 0x50, 0x11, 
  0x09, 0x52, 0x8b, 0x3b, 0x00, 0x00, 0x00, 0x00, 0x62, 0x97, 0x28, 0x28, 
  0x12, 0x00, 0x00, 0x00, 0x00, 0x00, 0xfc, 0xff, 0xff, 0xff, 0x7f, 0x23, 
  0x41, 0x16, 0x9a, 0x1a, 0x02, 0x00, 0x88, 0x20, 0xa0, 0x01, 0x40, 0x86, 
  0x0a, 0xc4, 0x6a, 0x29, 0xf5, 0xef, 0x0b, 0x00, 0x00, 0xe8, 0xbe, 0x16, 
  0x42, 0x01, 0x40, 0x00, 0x00, 0x00, 0x00, 0x40, 0xfc, 0xff, 0xff, 0xff, 
  0xff, 0x41, 0x90, 0x5a, 0x11, 0x52, 0x18, 0x00, 0x10, 0x40, 0x80, 0x00, 
  0x80, 0xa9, 0x62, 0x00, 0xc0, 0xa2, 0x2c, 0xcc, 0x15, 0x00, 0x40, 0x76, 
  0xa7, 0x49, 0x12, 0x84, 0x00, 0x00, 0x00, 0x00, 0x00, 0x00, 0xfc, 0xff, 
  0xff, 0xff, 0x7f, 0x24, 0x92, 0x00, 0x48, 0x49, 0x81, 0x18, 0x00, 0x11, 
  0x04, 0x20, 0xa2, 0x22, 0x88, 0x6d, 0x16, 0x58, 0xd9, 0x76, 0x25, 0x00, 
  0x51, 0x4f, 0x88, 0x14, 0x00, 0x00, 0x24, 0x05, 0x00, 0x00, 0x00, 0x81, 
  0xfc, 0xff, 0xff, 0xff, 0xbf, 0x40, 0x10, 0x04, 0x40, 0x10, 0x00, 0x88, 
  0x21, 0x88, 0x20, 0x48, 0x25, 0x75, 0x55, 0x22, 0x0a, 0xaa, 0xd5, 0xa6, 
  0x52, 0x6c, 0xbd, 0x25, 0x14, 0x25, 0x40, 0x00, 0x00, 0x08, 0x00, 0x00, 
  0x00, 0x00, 0xfc, 0xff, 0xff, 0xff, 0x1f, 0x16, 0x8a, 0x61, 0x24, 0x4a, 
  0x01, 0x00, 0x08, 0x02, 0x01, 0x00, 0x18, 0x41, 0xaa, 0x99, 0xf4, 0x55, 
  0x3a, 0x5b, 0xa5, 0x91, 0x7f, 0x9a, 0x41, 0x24, 0x00, 0x02, 0x44, 0x01, 
  0x00, 0x00, 0x00, 0x00, 0xfc, 0xff, 0xff, 0xfb, 0x7f, 0x00, 0x12, 0x08, 
  0x02, 0x58, 0x00, 0x00, 0x01, 0x10, 0x08, 0x40, 0x06, 0x18, 0xb5, 0xa6, 
  0x59, 0xda, 0x89, 0xaa, 0x6a, 0xa6, 0xa3, 0xa0, 0x59, 0x01, 0x01, 0x14, 
  0x00, 0x00, 0x00, 0x00, 0x00, 0x00, 0xfc, 0xff, 0xff, 0xf0, 0x7f, 0x85, 
  0x00, 0x40, 0xa4, 0x02, 0x20, 0x40, 0x20, 0x04, 0x80, 0x24, 0x55, 0xa6, 
  0x02, 0x20, 0x56, 0x94, 0xf7, 0x55, 0x55, 0x59, 0x24, 0x05, 0x00, 0x80, 
  0x44, 0x40, 0x62, 0x08, 0x00, 0x00, 0x00, 0x00, 0x78, 0xc0, 0xff, 0xf0, 
  0x3f, 0x62, 0xa2, 0x12, 0x59, 0x11, 0x00, 0x40, 0x04, 0x00, 0x80, 0xfa, 
  0x64, 0x48, 0x4a, 0xa9, 0x49, 0x24, 0x58, 0x9a, 0x44, 0x11, 0x48, 0x01, 
  0x91, 0x08, 0x10, 0x94, 0x44, 0x00, 0x00, 0x00, 0x00, 0x00, 0x1e, 0xf8, 
  0x7f, 0xf8, 0x5f, 0x8a, 0x5d, 0xe5, 0x00, 0x04, 0x00, 0x08, 0x40, 0x84, 
  0x10, 0x1a, 0x1a, 0x23, 0x10, 0x51, 0x96, 0x49, 0x86, 0x65, 0x63, 0x44, 
  0x11, 0x64, 0x08, 0x01, 0x82, 0x00, 0x00, 0x05, };
