#define center_width 15
#define center_height 15
static unsigned char center_bits[] = {
   0xe0, 0x03, 0x50, 0x05, 0xa8, 0x0a, 0x14, 0x14, 0x4a, 0x29, 0xa5, 0x52,
   0xd3, 0x65, 0x65, 0x53, 0xd3, 0x65, 0xa5, 0x52, 0x4a, 0x29, 0x14, 0x14,
   0xa8, 0x0a, 0x50, 0x05, 0xe0, 0x03};
