#define compm_width 16
#define compm_height 16
static char compm_bits[] = {
 0xf8,0x3f,0xf8,0x7f,0xf8,0x7f,0xf8,0x7f,0xf8,0x7f,0xf8,0x7f,0xf8,0x7f,0xf8,
 0x3f,0xf8,0x3f,0xe0,0xff,0xf8,0xff,0xfc,0xff,0xfc,0xff,0xfe,0x7f,0xff,0x3f,
 0xff,0x1f};
