#define foldm_width 16
#define foldm_height 13
static char foldm_bits[] = {
 0x38,0x00,0x7c,0x00,0xfe,0x7f,0xff,0xff,0xff,0xff,0xff,0xff,0xff,0xff,0xff,
 0xff,0xff,0xff,0xff,0xff,0xff,0xff,0xff,0xff,0xff,0xff};
