#define history_width 15
#define history_height 16
static unsigned char history_bits[] = {
   0x00, 0x00, 0x80, 0x00, 0xc0, 0x01, 0x60, 0x03, 0x30, 0x06, 0x98, 0x0c,
   0xcc, 0x19, 0x66, 0x33, 0x30, 0x06, 0x00, 0x00, 0xaa, 0x3b, 0x8a, 0x10,
   0xae, 0x13, 0x2a, 0x12, 0xaa, 0x13, 0x00, 0x00};
