#define left_width 15
#define left_height 15
static unsigned char left_bits[] = {
   0x00, 0x00, 0x80, 0x02, 0x40, 0x05, 0xa0, 0x0b, 0xd0, 0x27, 0xe8, 0x37,
   0xf4, 0x37, 0xfa, 0x37, 0xf4, 0x37, 0xe8, 0x37, 0xd0, 0x27, 0xa0, 0x0b,
   0x40, 0x05, 0x80, 0x02, 0x00, 0x00};
