#define linkm_width 16
#define linkm_height 16
static char linkm_bits[] = {
 0xfe,0x07,0xfe,0x0f,0xfe,0x1f,0xfe,0x3f,0xfe,0x3f,0xfe,0x3f,0xfe,0x3f,0xfe,
 0x3f,0xfe,0x7f,0xfe,0x3f,0xfe,0x3f,0xfe,0x3f,0xfe,0x3f,0xfe,0x3f,0xfe,0x3f,
 0xfe,0x3f};
