#define mgl_width 11
#define mgl_height 11
static unsigned char mgl_bits[] = {
   0x00, 0x00, 0x00, 0x02, 0x00, 0x01, 0x80, 0x00, 0xc6, 0x00, 0x6f, 0x00,
   0x7e, 0x00, 0x3c, 0x00, 0x38, 0x00, 0x10, 0x00, 0x00, 0x00};
