#define mgl5_width 11
#define mgl5_height 11
static unsigned char mgl5_bits[] = {
   0x00, 0x00, 0x02, 0x00, 0x0e, 0x00, 0x3e, 0x00, 0xfe, 0x00, 0xfe, 0x01,
   0xfe, 0x00, 0x3e, 0x00, 0x0e, 0x00, 0x02, 0x00, 0x00, 0x00};
