#define quest_width 16
#define quest_height 16
static unsigned char quest_bits[] = {
   0x00, 0x00, 0x00, 0x00, 0x00, 0x00, 0xc0, 0x01, 0xe0, 0x03, 0x30, 0x06,
   0x30, 0x0c, 0x00, 0x0c, 0x00, 0x06, 0x00, 0x03, 0x80, 0x01, 0x80, 0x01,
   0x00, 0x00, 0x80, 0x01, 0x00, 0x00, 0x00, 0x00};
