#define recycle_width 35
#define recycle_height 42
static unsigned char recycle_bits[] = {
   0x00, 0x00, 0x00, 0x00, 0x00, 0x00, 0x00, 0x00, 0x00, 0x00, 0x00, 0x00,
   0x00, 0x00, 0x00, 0x00, 0x00, 0x00, 0x00, 0x00, 0x00, 0x00, 0x00, 0x00,
   0x00, 0x00, 0x00, 0x00, 0x00, 0x00, 0x00, 0x00, 0x00, 0x00, 0x00, 0x00,
   0x00, 0x00, 0x00, 0x00, 0x00, 0xc0, 0x1f, 0x00, 0x00, 0x00, 0x40, 0x20,
   0x00, 0x00, 0x80, 0xff, 0xff, 0x1f, 0x00, 0x80, 0x00, 0x00, 0x15, 0x00,
   0x80, 0x92, 0x7a, 0x1f, 0x00, 0x80, 0x01, 0xa5, 0x0d, 0x00, 0x00, 0x01,
   0xa8, 0x0a, 0x00, 0x00, 0x81, 0x55, 0x0f, 0x00, 0x00, 0x01, 0x51, 0x0b,
   0x00, 0x00, 0x81, 0xa8, 0x0f, 0x00, 0x00, 0x01, 0x51, 0x0b, 0x00, 0x00,
   0x89, 0xa8, 0x0f, 0x00, 0x00, 0x81, 0x52, 0x0b, 0x00, 0x00, 0x01, 0xa9,
   0x0f, 0x00, 0x00, 0x81, 0x51, 0x0b, 0x00, 0x00, 0x01, 0x58, 0x0f, 0x00,
   0x00, 0x81, 0xa1, 0x0b, 0x00, 0x00, 0x01, 0x59, 0x0f, 0x00, 0x00, 0x89,
   0xa2, 0x0b, 0x00, 0x00, 0x81, 0x58, 0x0f, 0x00, 0x00, 0x01, 0xa1, 0x0b,
   0x00, 0x00, 0x81, 0x58, 0x0f, 0x00, 0x00, 0x01, 0xa9, 0x0b, 0x00, 0x00,
   0x81, 0x50, 0x0f, 0x00, 0x00, 0x81, 0x52, 0x0b, 0x00, 0x00, 0x09, 0x58,
   0x0f, 0x00, 0x00, 0x81, 0xa1, 0x0b, 0x00, 0x00, 0x81, 0xac, 0x0f, 0x00,
   0x00, 0x01, 0x51, 0x0b, 0x00, 0x00, 0x01, 0x54, 0x0d, 0x00, 0x00, 0x01,
   0xa0, 0x0a, 0x00, 0x00, 0xff, 0xff, 0x0f, 0x00, 0x00, 0x00, 0x00, 0x00,
   0x00, 0x00, 0x00, 0x00, 0x00, 0x00};
