#define right_width 15
#define right_height 15
static unsigned char right_bits[] = {
   0x00, 0x00, 0xa0, 0x00, 0x50, 0x01, 0xe8, 0x02, 0xf2, 0x05, 0xf6, 0x0b,
   0xf6, 0x17, 0xf6, 0x2f, 0xf6, 0x17, 0xf6, 0x0b, 0xf2, 0x05, 0xe8, 0x02,
   0x50, 0x01, 0xa0, 0x00, 0x00, 0x00};
